<?xml version="1.0" standalone="no"?>
<svg xmlns:xlink="http://www.w3.org/1999/xlink" id="wave" style="transform:rotate(0deg); transition: 0.3s" viewBox="0 0 1440 340" version="1.1" xmlns="http://www.w3.org/2000/svg"><defs><linearGradient id="sw-gradient-0" x1="0" x2="0" y1="1" y2="0"><stop stop-color="rgba(255, 255, 255, 1)" offset="0%"/><stop stop-color="rgba(71, 86, 223, 1)" offset="100%"/></linearGradient></defs><path style="transform:translate(0, 0px); opacity:1" fill="url(#sw-gradient-0)" d="M0,136L26.7,164.3C53.3,193,107,249,160,260.7C213.3,272,267,238,320,198.3C373.3,159,427,113,480,107.7C533.3,102,587,136,640,170C693.3,204,747,238,800,232.3C853.3,227,907,181,960,164.3C1013.3,147,1067,159,1120,181.3C1173.3,204,1227,238,1280,238C1333.3,238,1387,204,1440,187C1493.3,170,1547,170,1600,147.3C1653.3,125,1707,79,1760,51C1813.3,23,1867,11,1920,45.3C1973.3,79,2027,159,2080,170C2133.3,181,2187,125,2240,124.7C2293.3,125,2347,181,2400,221C2453.3,261,2507,283,2560,243.7C2613.3,204,2667,102,2720,51C2773.3,0,2827,0,2880,34C2933.3,68,2987,136,3040,164.3C3093.3,193,3147,181,3200,170C3253.3,159,3307,147,3360,170C3413.3,193,3467,249,3520,260.7C3573.3,272,3627,238,3680,198.3C3733.3,159,3787,113,3813,90.7L3840,68L3840,340L3813.3,340C3786.7,340,3733,340,3680,340C3626.7,340,3573,340,3520,340C3466.7,340,3413,340,3360,340C3306.7,340,3253,340,3200,340C3146.7,340,3093,340,3040,340C2986.7,340,2933,340,2880,340C2826.7,340,2773,340,2720,340C2666.7,340,2613,340,2560,340C2506.7,340,2453,340,2400,340C2346.7,340,2293,340,2240,340C2186.7,340,2133,340,2080,340C2026.7,340,1973,340,1920,340C1866.7,340,1813,340,1760,340C1706.7,340,1653,340,1600,340C1546.7,340,1493,340,1440,340C1386.7,340,1333,340,1280,340C1226.7,340,1173,340,1120,340C1066.7,340,1013,340,960,340C906.7,340,853,340,800,340C746.7,340,693,340,640,340C586.7,340,533,340,480,340C426.7,340,373,340,320,340C266.7,340,213,340,160,340C106.7,340,53,340,27,340L0,340Z"/><defs><linearGradient id="sw-gradient-1" x1="0" x2="0" y1="1" y2="0"><stop stop-color="rgba(255, 255, 255, 1)" offset="0%"/><stop stop-color="rgba(71, 86, 223, 1)" offset="100%"/></linearGradient></defs><path style="transform:translate(0, 50px); opacity:0.9" fill="url(#sw-gradient-1)" d="M0,102L26.7,130.3C53.3,159,107,215,160,232.3C213.3,249,267,227,320,221C373.3,215,427,227,480,204C533.3,181,587,125,640,85C693.3,45,747,23,800,22.7C853.3,23,907,45,960,85C1013.3,125,1067,181,1120,215.3C1173.3,249,1227,261,1280,232.3C1333.3,204,1387,136,1440,107.7C1493.3,79,1547,91,1600,96.3C1653.3,102,1707,102,1760,107.7C1813.3,113,1867,125,1920,113.3C1973.3,102,2027,68,2080,90.7C2133.3,113,2187,193,2240,198.3C2293.3,204,2347,136,2400,102C2453.3,68,2507,68,2560,96.3C2613.3,125,2667,181,2720,204C2773.3,227,2827,215,2880,181.3C2933.3,147,2987,91,3040,96.3C3093.3,102,3147,170,3200,175.7C3253.3,181,3307,125,3360,136C3413.3,147,3467,227,3520,226.7C3573.3,227,3627,147,3680,102C3733.3,57,3787,45,3813,39.7L3840,34L3840,340L3813.3,340C3786.7,340,3733,340,3680,340C3626.7,340,3573,340,3520,340C3466.7,340,3413,340,3360,340C3306.7,340,3253,340,3200,340C3146.7,340,3093,340,3040,340C2986.7,340,2933,340,2880,340C2826.7,340,2773,340,2720,340C2666.7,340,2613,340,2560,340C2506.7,340,2453,340,2400,340C2346.7,340,2293,340,2240,340C2186.7,340,2133,340,2080,340C2026.7,340,1973,340,1920,340C1866.7,340,1813,340,1760,340C1706.7,340,1653,340,1600,340C1546.7,340,1493,340,1440,340C1386.7,340,1333,340,1280,340C1226.7,340,1173,340,1120,340C1066.7,340,1013,340,960,340C906.7,340,853,340,800,340C746.7,340,693,340,640,340C586.7,340,533,340,480,340C426.7,340,373,340,320,340C266.7,340,213,340,160,340C106.7,340,53,340,27,340L0,340Z"/></svg>